<svg xmlns="http://www.w3.org/2000/svg" width="64.001" height="64">
  <path fill="none" d="M0 0H64.001V64H0z"/>
  <linearGradient id="a" gradientUnits="userSpaceOnUse" x1="2375.3613" y1="-2550.4746" x2="2375.3613" y2="-2606.4707" gradientTransform="rotate(-45 4354.3926 1555.3356)">
    <stop offset="0" stop-color="#ffd329"/>
    <stop offset="1" stop-color="#ffde5f"/>
  </linearGradient>
  <path fill="url(#a)" d="M12.207,11.895c-10.938,10.936-10.938,28.659,0,39.597c10.934,10.935,28.658,10.935,39.596-0.003 c10.932-10.935,10.936-28.658,0-39.594C40.865,0.957,23.14,0.959,12.207,11.895z"/>
  <path fill="#F05C51" d="M52.34,29.621l-2.453-0.982c0.032,3.763-0.928,8.647-4.839,13.277l2.031,0.816 c3.201,1.288,8.379-0.044,9.832-3.663C58.364,35.447,55.542,30.906,52.34,29.621z"/>
  <path opacity=".7" fill="#FFF" d="M23.911 34.236c1.997 1.998 1.997 5.231.002 7.228-1.994 1.995-5.23 1.995-7.227-.001-1.996-1.997-1.996-5.232 0-7.226C18.68 32.236 21.916 32.239 23.911 34.236zM41.54 16.605c1.996 1.998 1.997 5.232.002 7.229-1.995 1.995-5.231 1.995-7.228-.001-1.995-1.997-1.995-5.232 0-7.228C36.309 14.611 39.545 14.611 41.54 16.605z"/>
  <path opacity=".85" fill="#706259" d="M23.146 38.16c1.099 1.1 1.1 2.878.002 3.975-1.098 1.1-2.878 1.1-3.977-.003-1.097-1.096-1.098-2.877 0-3.974C20.269 37.06 22.049 37.062 23.146 38.16zM38.996 16.076c1.1 1.098 1.102 2.878.002 3.973-1.098 1.099-2.877 1.099-3.976 0-1.097-1.097-1.098-2.877 0-3.975C36.119 14.976 37.899 14.978 38.996 16.076zM29.129 49.577c-2.724.001-4.88-.525-5.964-.855-.528-.161-.826-.721-.665-1.249.161-.528.718-.825 1.248-.665 2.463.752 11.077 2.621 18.535-4.835 7.458-7.455 5.589-16.072 4.838-18.536-.161-.528.137-1.087.665-1.248.527-.161 1.087.137 1.248.666.833 2.732 2.908 12.29-5.337 20.532C38.723 48.36 33.271 49.577 29.129 49.577z"/>
  <path opacity=".2" fill="#FFF" d="M53.873,38.909c-0.131,0-0.265-0.025-0.395-0.077l-5.205-2.09l0.737-1.988l5.257,2.111 c0.543,0.218,0.807,0.835,0.588,1.378C54.691,38.657,54.293,38.909,53.873,38.909z"/>
</svg>
